<svg xmlns="http://www.w3.org/2000/svg" xmlns:xlink="http://www.w3.org/1999/xlink" width="40" zoomAndPan="magnify" viewBox="0 0 30 30.000001" height="40" preserveAspectRatio="xMidYMid meet" version="1.0"><defs><clipPath id="0f357c7964"><path d="M 0.484375 0 L 29.515625 0 L 29.515625 29.03125 L 0.484375 29.03125 Z M 0.484375 0 " clip-rule="nonzero"/></clipPath><clipPath id="b6b3a62511"><path d="M 1.933594 9.730469 L 20.179688 9.730469 L 20.179688 19.308594 L 1.933594 19.308594 Z M 1.933594 9.730469 " clip-rule="nonzero"/></clipPath><clipPath id="3f7d955e84"><path d="M 12.554688 5.394531 L 25.144531 5.394531 L 25.144531 23.636719 L 12.554688 23.636719 Z M 12.554688 5.394531 " clip-rule="nonzero"/></clipPath></defs><g clip-path="url(#0f357c7964)"><path fill="#ffffff" d="M 0.484375 0 L 29.515625 0 L 29.515625 29.03125 L 0.484375 29.03125 Z M 0.484375 0 " fill-opacity="1" fill-rule="nonzero"/><path fill="#000000" d="M 0.484375 0 L 29.515625 0 L 29.515625 29.03125 L 0.484375 29.03125 Z M 0.484375 0 " fill-opacity="1" fill-rule="nonzero"/></g><g clip-path="url(#b6b3a62511)"><path fill="#ffb800" d="M 20.179688 18.101562 C 20.164062 18.078125 19.136719 17.058594 18.171875 17.199219 C 17.796875 17.253906 17.4375 17.375 17.105469 17.558594 L 14.78125 18.835938 C 13.84375 19.300781 12.734375 19.261719 11.832031 18.730469 C 11.734375 18.675781 11.742188 18.527344 11.847656 18.484375 L 16.683594 16.378906 C 16.460938 16.285156 11.832031 17.414062 11.695312 17.449219 C 11.695312 17.449219 11.691406 17.449219 11.6875 17.449219 C 11.503906 17.488281 11.316406 17.507812 11.132812 17.507812 C 10.347656 17.507812 9.59375 17.164062 9.078125 16.558594 C 9.007812 16.476562 9.050781 16.351562 9.15625 16.328125 L 16.128906 14.96875 C 16.128906 14.96875 16.132812 14.96875 16.132812 14.964844 C 16.136719 14.964844 16.136719 14.960938 16.136719 14.957031 C 16.136719 14.953125 16.132812 14.949219 16.128906 14.949219 C 15.457031 14.804688 9.058594 15.121094 8.882812 15.128906 C 8.878906 15.128906 8.875 15.128906 8.875 15.128906 C 7.792969 15.128906 6.769531 14.667969 6.089844 13.875 L 5.886719 13.640625 C 5.808594 13.546875 5.871094 13.40625 5.992188 13.410156 L 15.96875 13.453125 C 15.972656 13.453125 15.976562 13.449219 15.976562 13.449219 C 15.980469 13.445312 15.980469 13.441406 15.980469 13.441406 C 15.980469 13.433594 15.976562 13.425781 15.96875 13.425781 L 6.199219 12.335938 C 5.066406 12.179688 4.003906 11.699219 3.140625 10.949219 L 2.042969 10 C 1.933594 9.90625 2.019531 9.730469 2.15625 9.757812 L 15.882812 12.167969 C 16.042969 12.195312 16.992188 12.382812 17.140625 12.457031 C 17.574219 12.664062 18.261719 13.175781 18.589844 14.160156 C 19.03125 15.492188 20.148438 18.039062 20.179688 18.101562 " fill-opacity="1" fill-rule="nonzero"/></g><g clip-path="url(#3f7d955e84)"><path fill="#ffb800" d="M 25.152344 18.105469 C 25.152344 20.800781 23.214844 23.640625 19.457031 23.640625 L 12.5625 23.640625 L 16.21875 20.066406 L 19.117188 20.066406 C 20.304688 20.066406 21.574219 19.25 21.574219 17.847656 C 21.574219 16.792969 20.851562 15.742188 19.105469 15.742188 L 16.21875 15.742188 L 16.21875 12.527344 L 17.703125 12.527344 C 18.574219 12.527344 19.421875 11.777344 19.421875 10.714844 C 19.421875 9.683594 18.621094 8.960938 17.769531 8.960938 L 16.21875 8.960938 L 12.5625 5.394531 L 17.542969 5.394531 C 20.78125 5.394531 22.839844 7.769531 22.839844 10.226562 C 22.839844 12.164062 21.5625 13.363281 21.121094 13.363281 C 22.875 13.363281 25.152344 15.171875 25.152344 18.105469 Z M 25.152344 18.105469 " fill-opacity="1" fill-rule="nonzero"/></g></svg>